<svg xmlns="http://www.w3.org/2000/svg" viewBox="0 0 32 32" fill="none">
  <defs>
    <linearGradient id="grad" x1="0%" y1="0%" x2="100%" y2="100%">
      <stop offset="0%" stop-color="#6366F1"/>
      <stop offset="100%" stop-color="#A855F7"/>
    </linearGradient>
  </defs>
  <rect width="32" height="32" rx="6" fill="url(#grad)"/>
  <path d="M16 4C10.5 4 6 8.5 6 14c0 3.2 1.6 6 4 7.5V26c0 .6.4 1 1 1h6c.6 0 1-.4 1-1v-4.5c2.4-1.5 4-4.3 4-7.5C26 8.5 21.5 4 16 4z" fill="white" opacity="0.95"/>
  <path d="M10 14c0-2.2 1.8-4 4-4s4 1.8 4 4" stroke="url(#grad)" stroke-width="1.5" stroke-linecap="round" fill="none" opacity="0.7"/>
  <path d="M16 10v4" stroke="url(#grad)" stroke-width="1.5" stroke-linecap="round" opacity="0.7"/>
  <path d="M10 18h12" stroke="white" stroke-width="1.5" stroke-linecap="round" opacity="0.5"/>
  <circle cx="16" cy="18" r="1.5" fill="white" opacity="0.8"/>
</svg>